<svg width="90" height="90" viewBox="0 0 90 90" fill="none" xmlns="http://www.w3.org/2000/svg">
<g filter="url(#filter0_d_1289_2600)">
<rect x="25" y="21" width="40" height="40" rx="8" fill="white"/>
<path d="M45.9601 34.28L52.3426 40.6625C53.1001 41.42 53.1001 42.6425 52.3426 43.4L46.7701 48.9725C46.0126 49.73 44.7901 49.73 44.0326 48.9725L37.6501 42.59C37.2901 42.23 37.0801 41.735 37.0801 41.225V35.6525C37.0801 34.5875 37.9501 33.7175 39.0151 33.7175H44.5876C45.1051 33.7175 45.6001 33.92 45.9601 34.28Z" stroke="#444444" stroke-width="0.7" stroke-miterlimit="10" stroke-linecap="round" stroke-linejoin="round"/>
<path d="M41.5801 39.2525C42.1559 39.2525 42.6226 38.7858 42.6226 38.21C42.6226 37.6343 42.1559 37.1675 41.5801 37.1675C41.0043 37.1675 40.5376 37.6343 40.5376 38.21C40.5376 38.7858 41.0043 39.2525 41.5801 39.2525Z" stroke="#444444" stroke-width="0.7" stroke-miterlimit="10" stroke-linecap="round" stroke-linejoin="round"/>
<rect x="25.25" y="21.25" width="39.5" height="39.5" rx="7.75" stroke="#ECECEC" stroke-width="0.5"/>
</g>
<defs>
<filter id="filter0_d_1289_2600" x="0" y="0" width="90" height="90" filterUnits="userSpaceOnUse" color-interpolation-filters="sRGB">
<feFlood flood-opacity="0" result="BackgroundImageFix"/>
<feColorMatrix in="SourceAlpha" type="matrix" values="0 0 0 0 0 0 0 0 0 0 0 0 0 0 0 0 0 0 127 0" result="hardAlpha"/>
<feOffset dy="4"/>
<feGaussianBlur stdDeviation="12.5"/>
<feComposite in2="hardAlpha" operator="out"/>
<feColorMatrix type="matrix" values="0 0 0 0 0.554167 0 0 0 0 0.554167 0 0 0 0 0.554167 0 0 0 0.05 0"/>
<feBlend mode="normal" in2="BackgroundImageFix" result="effect1_dropShadow_1289_2600"/>
<feBlend mode="normal" in="SourceGraphic" in2="effect1_dropShadow_1289_2600" result="shape"/>
</filter>
</defs>
</svg>
