<svg width="16" height="16" viewBox="0 0 16 16" fill="none" xmlns="http://www.w3.org/2000/svg">
<path d="M8.0415 10.875H8.3415C8.3415 10.7093 8.20719 10.575 8.0415 10.575V10.875ZM8.0415 10.9583L8.04143 11.2583C8.12101 11.2583 8.19733 11.2267 8.25361 11.1705C8.30989 11.1142 8.3415 11.0379 8.3415 10.9583H8.0415ZM7.9585 10.9583H7.6585C7.6585 11.1239 7.79276 11.2582 7.95842 11.2583L7.9585 10.9583ZM7.9585 10.875V10.575C7.79281 10.575 7.6585 10.7093 7.6585 10.875H7.9585ZM8.3 5.04163C8.3 4.87594 8.16569 4.74163 8 4.74163C7.83431 4.74163 7.7 4.87594 7.7 5.04163H8.3ZM7.7 8.37496C7.7 8.54064 7.83431 8.67496 8 8.67496C8.16569 8.67496 8.3 8.54064 8.3 8.37496H7.7ZM8 15.2C4.02355 15.2 0.8 11.9764 0.8 8H0.2C0.2 12.3078 3.69218 15.8 8 15.8V15.2ZM0.8 8C0.8 4.02355 4.02355 0.8 8 0.8V0.2C3.69218 0.2 0.2 3.69218 0.2 8H0.8ZM8 0.8C11.9764 0.8 15.2 4.02355 15.2 8H15.8C15.8 3.69218 12.3078 0.2 8 0.2V0.8ZM15.2 8C15.2 11.9764 11.9764 15.2 8 15.2V15.8C12.3078 15.8 15.8 12.3078 15.8 8H15.2ZM7.7415 10.875V10.9583H8.3415V10.875H7.7415ZM8.04158 10.6583L7.95857 10.6583L7.95842 11.2583L8.04143 11.2583L8.04158 10.6583ZM8.2585 10.9583V10.875H7.6585V10.9583H8.2585ZM7.9585 11.175H8.0415V10.575H7.9585V11.175ZM7.7 5.04163V8.37496H8.3V5.04163H7.7Z" fill="#9AA6AC"/>
</svg>
