<svg width="90" height="90" viewBox="0 0 90 90" fill="none" xmlns="http://www.w3.org/2000/svg">
<g filter="url(#filter0_d_1289_2614)">
<rect x="25" y="21" width="40" height="40" rx="8" fill="white"/>
<path d="M37 35L45.2286 41L52.9999 35M54 37.2V44.8C54 45.9201 54.0002 46.4802 53.7822 46.908C53.5905 47.2844 53.2841 47.5902 52.9078 47.782C52.48 48 51.9203 48 50.8002 48H39.2002C38.0801 48 37.5196 48 37.0918 47.782C36.7155 47.5902 36.4097 47.2844 36.218 46.908C36 46.4802 36 45.9201 36 44.8V37.2C36 36.0798 36 35.5199 36.218 35.092C36.4097 34.7157 36.7155 34.4097 37.0918 34.218C37.5196 34 38.0801 34 39.2002 34H50.8002C51.9203 34 52.48 34 52.9078 34.218C53.2841 34.4097 53.5905 34.7157 53.7822 35.092C54.0002 35.5199 54 36.0798 54 37.2Z" stroke="#0B0B0B" stroke-width="0.7" stroke-linecap="round" stroke-linejoin="round"/>
<rect x="25.25" y="21.25" width="39.5" height="39.5" rx="7.75" stroke="#ECECEC" stroke-width="0.5"/>
</g>
<defs>
<filter id="filter0_d_1289_2614" x="0" y="0" width="90" height="90" filterUnits="userSpaceOnUse" color-interpolation-filters="sRGB">
<feFlood flood-opacity="0" result="BackgroundImageFix"/>
<feColorMatrix in="SourceAlpha" type="matrix" values="0 0 0 0 0 0 0 0 0 0 0 0 0 0 0 0 0 0 127 0" result="hardAlpha"/>
<feOffset dy="4"/>
<feGaussianBlur stdDeviation="12.5"/>
<feComposite in2="hardAlpha" operator="out"/>
<feColorMatrix type="matrix" values="0 0 0 0 0.554167 0 0 0 0 0.554167 0 0 0 0 0.554167 0 0 0 0.05 0"/>
<feBlend mode="normal" in2="BackgroundImageFix" result="effect1_dropShadow_1289_2614"/>
<feBlend mode="normal" in="SourceGraphic" in2="effect1_dropShadow_1289_2614" result="shape"/>
</filter>
</defs>
</svg>
